<svg width="332" height="76" viewBox="0 0 332 76" fill="none" xmlns="http://www.w3.org/2000/svg">
<path d="M169.01 8.1488C169.049 10.336 167.287 12.13 165.099 12.13H36.0647L36.0287 70.2964C36.027 73.0594 33.7866 75.2984 31.0236 75.2984C28.2594 75.2984 26.0185 73.0575 26.0185 70.2933V12.13H3.95939C1.77268 12.13 0 10.3573 0 8.17057C0 5.98294 1.77411 4.20988 3.96174 4.21118L165.102 4.30681C167.234 4.30807 168.972 6.01686 169.01 8.1488Z" fill="url(#paint0_linear_2221_15)"/>
<path d="M109.675 22.1567C112.328 22.1567 114.478 24.3072 114.478 26.9601V70.6951C114.478 73.2374 112.417 75.2984 109.875 75.2984C107.333 75.2984 105.272 73.2374 105.272 70.6951V66.8759C103.137 69.8171 100.435 72.0564 97.1659 73.5938C93.8969 75.1313 90.2944 75.9 86.3582 75.9C81.2213 75.9 76.618 74.7636 72.5484 72.4909C68.4789 70.2182 65.2766 67.043 62.9416 62.9655C60.6733 58.8211 59.5392 54.0751 59.5392 48.7275C59.5392 43.3799 60.6733 38.6674 62.9416 34.5898C65.2766 30.5123 68.4789 27.3372 72.5484 25.0644C76.618 22.7917 81.2213 21.6553 86.3582 21.6553C90.1609 21.6553 93.6634 22.3906 96.8657 23.8612C100.068 25.265 102.737 27.3706 104.871 30.1781V26.9601C104.871 24.3072 107.022 22.1567 109.675 22.1567ZM87.1588 67.4775C90.4945 67.4775 93.53 66.7088 96.2653 65.1714C99.0006 63.5671 101.135 61.3612 102.67 58.5537C104.204 55.6794 104.971 52.404 104.971 48.7275C104.971 45.0511 104.204 41.8091 102.67 39.0016C101.135 36.1273 99.0006 33.9214 96.2653 32.384C93.53 30.8465 90.4945 30.0778 87.1588 30.0778C83.7564 30.0778 80.6876 30.8465 77.9523 32.384C75.2837 33.9214 73.1489 36.1273 71.5477 39.0016C70.0133 41.8091 69.2461 45.0511 69.2461 48.7275C69.2461 52.404 70.0133 55.6794 71.5477 58.5537C73.1489 61.3612 75.2837 63.5671 77.9523 65.1714C80.6876 66.7088 83.7564 67.4775 87.1588 67.4775Z" fill="url(#paint1_linear_2221_15)"/>
<path d="M147.866 75.9C143.53 75.9 139.36 75.3318 135.357 74.1954C132.902 73.4575 130.773 72.6064 128.971 71.6422C127.126 70.6555 126.654 68.3437 127.627 66.4916C128.857 64.1507 131.883 63.4469 134.294 64.5325C135.583 65.1127 136.971 65.6265 138.459 66.0738C141.795 67.0765 145.164 67.5778 148.567 67.5778C156.973 67.5778 161.175 65.1714 161.175 60.3586C161.175 58.7543 160.608 57.4842 159.474 56.5484C158.34 55.6126 156.906 54.9441 155.171 54.543C153.503 54.0751 151.102 53.5738 147.966 53.039C143.696 52.3706 140.194 51.6019 137.459 50.7329C134.79 49.8639 132.488 48.3933 130.554 46.3211C128.619 44.2489 127.652 41.3412 127.652 37.5979C127.652 32.785 129.653 28.9414 133.656 26.0671C137.659 23.1259 143.029 21.6553 149.767 21.6553C153.303 21.6553 156.839 22.0898 160.375 22.9588C162.288 23.4291 164.016 23.9874 165.558 24.6338C167.631 25.5024 168.261 27.9917 167.196 29.9702C166.001 32.1889 163.17 32.8804 160.837 31.9281C157.488 30.5609 153.764 29.8773 149.667 29.8773C145.598 29.8773 142.496 30.5457 140.361 31.8826C138.226 33.2195 137.158 34.9909 137.158 37.1968C137.158 38.9348 137.759 40.3051 138.96 41.3078C140.161 42.3104 141.628 43.0457 143.363 43.5136C145.164 43.9815 147.666 44.5163 150.868 45.1179C155.138 45.8532 158.574 46.6553 161.175 47.5243C163.844 48.3265 166.112 49.7302 167.98 51.7356C169.848 53.7409 170.782 56.5484 170.782 60.158C170.782 64.9709 168.714 68.8144 164.578 71.6888C160.508 74.4963 154.938 75.9 147.866 75.9Z" fill="url(#paint2_linear_2221_15)"/>
<path d="M203.403 50.5323L192.395 60.7596V70.495C192.395 73.1478 190.245 75.2984 187.592 75.2984C184.939 75.2984 182.789 73.1478 182.789 70.495V5.70341C182.789 3.05055 184.939 0.899994 187.592 0.899994C190.245 0.899994 192.395 3.05056 192.395 5.70341V48.6273L221.316 22.1567H232.924L210.608 44.1152L235.126 75.2984H223.317L203.403 50.5323Z" fill="url(#paint3_linear_2221_15)"/>
<path d="M266.123 67.4775C270.691 67.4775 274.619 66.366 277.905 64.1429C279.96 62.7523 282.855 62.7589 284.448 64.662C285.716 66.1764 285.746 68.4161 284.259 69.7162C282.382 71.3577 280.206 72.6837 277.731 73.6941C274.195 75.1647 270.226 75.9 265.823 75.9C260.219 75.9 255.248 74.7636 250.912 72.4909C246.576 70.1513 243.206 66.9094 240.805 62.765C238.47 58.6206 237.302 53.9414 237.302 48.7275C237.302 43.5805 238.436 38.9348 240.705 34.7904C243.04 30.646 246.209 27.4374 250.211 25.1647C254.281 22.8251 258.851 21.6553 263.921 21.6553C268.725 21.6553 273.094 22.7583 277.03 24.9642C280.967 27.1032 284.102 30.1446 286.437 34.0885C288.772 38.0323 289.973 42.5778 290.04 47.7249L247.91 55.9468C249.244 59.6233 251.479 62.4642 254.615 64.4695C257.817 66.4749 261.653 67.4775 266.123 67.4775ZM263.921 29.777C260.585 29.777 257.583 30.5457 254.915 32.0831C252.313 33.6206 250.278 35.793 248.81 38.6005C247.343 41.3412 246.609 44.5497 246.609 48.2262V49.2289L280.533 42.8118C279.666 38.9348 277.731 35.793 274.729 33.3866C271.727 30.9802 268.124 29.777 263.921 29.777Z" fill="url(#paint4_linear_2221_15)"/>
<path d="M312.686 31.0805C314.354 28.0056 316.823 25.666 320.092 24.0618C323.361 22.4575 327.33 21.6553 332 21.6553V30.9802C331.466 30.9134 330.732 30.8799 329.798 30.8799C324.595 30.8799 320.492 32.4508 317.49 35.5925C314.554 38.6674 313.087 43.0791 313.087 48.8278V70.495C313.087 73.1478 310.936 75.2984 308.283 75.2984C305.63 75.2984 303.48 73.1478 303.48 70.495V26.76C303.48 24.2176 305.541 22.1567 308.083 22.1567C310.625 22.1567 312.686 24.2176 312.686 26.76V31.0805Z" fill="url(#paint5_linear_2221_15)"/>
<defs>
<linearGradient id="paint0_linear_2221_15" x1="166.118" y1="0.899994" x2="166.118" y2="76.1005" gradientUnits="userSpaceOnUse">
<stop offset="0.413027" stop-color="#0167FF"/>
<stop offset="1" stop-color="#013E99"/>
</linearGradient>
<linearGradient id="paint1_linear_2221_15" x1="166.118" y1="0.899994" x2="166.118" y2="76.1005" gradientUnits="userSpaceOnUse">
<stop offset="0.413027" stop-color="#0167FF"/>
<stop offset="1" stop-color="#013E99"/>
</linearGradient>
<linearGradient id="paint2_linear_2221_15" x1="166.118" y1="0.899994" x2="166.118" y2="76.1005" gradientUnits="userSpaceOnUse">
<stop offset="0.413027" stop-color="#0167FF"/>
<stop offset="1" stop-color="#013E99"/>
</linearGradient>
<linearGradient id="paint3_linear_2221_15" x1="166.118" y1="0.899994" x2="166.118" y2="76.1005" gradientUnits="userSpaceOnUse">
<stop offset="0.413027" stop-color="#0167FF"/>
<stop offset="1" stop-color="#013E99"/>
</linearGradient>
<linearGradient id="paint4_linear_2221_15" x1="166.118" y1="0.899994" x2="166.118" y2="76.1005" gradientUnits="userSpaceOnUse">
<stop offset="0.413027" stop-color="#0167FF"/>
<stop offset="1" stop-color="#013E99"/>
</linearGradient>
<linearGradient id="paint5_linear_2221_15" x1="166.118" y1="0.899994" x2="166.118" y2="76.1005" gradientUnits="userSpaceOnUse">
<stop offset="0.413027" stop-color="#0167FF"/>
<stop offset="1" stop-color="#013E99"/>
</linearGradient>
</defs>
</svg>
