<svg width="220" height="220" viewBox="0 0 220 220" fill="none" xmlns="http://www.w3.org/2000/svg">
<g clip-path="url(#clip0_2652_2927)">
<path d="M148.299 59.608C153.457 53.8381 162.232 53.4191 167.898 58.6718C173.564 63.9246 173.976 72.8605 168.818 78.6305L104.128 150.995C98.329 157.482 88.3476 157.607 82.3935 151.268L50.4244 117.233C45.1284 111.595 45.3239 102.651 50.8609 97.2579C56.398 91.8646 65.1802 92.0638 70.4765 97.7024L92.9015 121.578L148.299 59.608Z" fill="white"/>
<path fill-rule="evenodd" clip-rule="evenodd" d="M179.369 1C201.809 1 220 19.5247 220 42.3761V179.624C220 202.475 201.809 221 179.369 221H40.6306C18.191 221 0 202.475 0 179.624V42.3761C0 19.5247 18.191 1 40.6306 1H179.369ZM40.6306 31.2752C34.6102 31.2752 29.7297 36.2453 29.7297 42.3761V179.624C29.7297 185.755 34.6102 190.725 40.6306 190.725H179.369C185.39 190.725 190.27 185.755 190.27 179.624V42.3761C190.27 36.2453 185.39 31.2752 179.369 31.2752H40.6306Z" fill="#0167FF"/>
</g>
<defs>
<clipPath id="clip0_2652_2927">
<rect width="220" height="220" fill="white"/>
</clipPath>
</defs>
</svg>
